<svg width="64" height="64" version="1.1" viewBox="0 0 16.9 16.9" xmlns="http://www.w3.org/2000/svg">
 <path d="m1.11 3.89-.279 5.02 4.45-2.34-1.29-.829c.967-1.6 2.75-2.64 4.76-2.54 2.05.0973 3.76 1.34 4.55 3.08l1.68-.865c-1.1-2.32-3.4-3.98-6.13-4.11-1.35-.064-2.63.253-3.74.856-1.1.6-2.03 1.49-2.7 2.56zm.918 7.63c1.1 2.32 3.4 3.98 6.14 4.11 2.68.127 5.08-1.25 6.41-3.38l1.25.805.28-5.02-4.45 2.34 1.33.857c-.972 1.58-2.74 2.6-4.74 2.51-2.05-.0974-3.76-1.34-4.55-3.09z" color="#000000" color-rendering="auto" dominant-baseline="auto" fill="#168e28" image-rendering="auto" shape-rendering="auto" solid-color="#000000" stop-color="#000000" style="font-feature-settings:normal;font-variant-alternates:normal;font-variant-caps:normal;font-variant-east-asian:normal;font-variant-ligatures:normal;font-variant-numeric:normal;font-variant-position:normal;font-variation-settings:normal;inline-size:0;isolation:auto;mix-blend-mode:normal;shape-margin:0;shape-padding:0;text-decoration-color:#000000;text-decoration-line:none;text-decoration-style:solid;text-indent:0;text-orientation:mixed;text-transform:none;white-space:normal"/>
</svg>
